<svg width="444" height="373" viewBox="0 0 444 373" fill="none" xmlns="http://www.w3.org/2000/svg">
<path d="M87 368.5C87 368.5 144 370.5 212.5 370.5C272.1 341.92 287.9 290.85 318.78 249.27C334.98 227.48 361.48 215.34 381.7 197.02C446.34 138.43 423 40.48 363.88 13.6C312.67 -9.66999 253.52 -1.32999 180.23 38.06C106.94 77.45 54.1296 102.88 15.6496 181.38C-22.8304 259.88 22.16 330.51 87 368.5Z" fill="#D91E2E"/>
<path opacity="0.8" d="M88.5 371C88.5 371 149.601 364.15 216 371C275.6 342.42 287.9 290.85 318.78 249.27C334.98 227.48 361.48 215.34 381.7 197.02C446.34 138.43 423 40.48 363.88 13.6C312.67 -9.66999 253.52 -1.32999 180.23 38.06C106.94 77.45 54.13 102.88 15.65 181.38C-22.83 259.88 23.66 333.01 88.5 371Z" fill="white"/>
<path d="M9.66016 309.26H412.71" stroke="#263238" stroke-miterlimit="10"/>
<path d="M9.66016 232.95H412.71" stroke="#263238" stroke-miterlimit="10"/>
<path d="M9.66016 156.64H412.71" stroke="#263238" stroke-miterlimit="10"/>
<path d="M9.66016 80.3298H412.71" stroke="#263238" stroke-miterlimit="10"/>
<path d="M101.3 37V309.44" stroke="#263238" stroke-miterlimit="10"/>
<path d="M343.561 37V309.44" stroke="#263238" stroke-miterlimit="10"/>
<path d="M110.3 137.99L107.3 141.15" stroke="#263238" stroke-miterlimit="10"/>
<path d="M161.39 84.1099L113.91 134.18" stroke="#263238" stroke-miterlimit="10"/>
<path d="M164.35 92.26L137.68 119.67" stroke="#263238" stroke-miterlimit="10"/>
<path d="M353.93 137.99L350.93 141.15" stroke="#263238" stroke-miterlimit="10"/>
<path d="M405.01 84.1099L357.54 134.18" stroke="#263238" stroke-miterlimit="10"/>
<path d="M407.981 92.26L381.311 119.67" stroke="#263238" stroke-miterlimit="10"/>
<path d="M3.62012 292.09L0.620117 295.25" stroke="#263238" stroke-miterlimit="10"/>
<path d="M54.7005 238.2L7.23047 288.28" stroke="#263238" stroke-miterlimit="10"/>
<path d="M57.6702 246.35L30.9902 273.77" stroke="#263238" stroke-miterlimit="10"/>
<path d="M42.8796 72.7998L39.8896 75.9598" stroke="#263238" stroke-miterlimit="10"/>
<path d="M93.97 18.9099L46.5 68.9799" stroke="#263238" stroke-miterlimit="10"/>
<path d="M96.9298 27.0598L70.2598 54.4698" stroke="#263238" stroke-miterlimit="10"/>
<path d="M264.881 72.7998L261.891 75.9598" stroke="#263238" stroke-miterlimit="10"/>
<path d="M315.97 18.9099L268.5 68.9799" stroke="#263238" stroke-miterlimit="10"/>
<path d="M318.93 27.0598L292.26 54.4698" stroke="#263238" stroke-miterlimit="10"/>
<path d="M196.24 217.26L193.24 220.42" stroke="#263238" stroke-miterlimit="10"/>
<path d="M247.321 163.38L199.851 213.45" stroke="#263238" stroke-miterlimit="10"/>
<path d="M250.29 171.53L223.62 198.94" stroke="#263238" stroke-miterlimit="10"/>
<path d="M400.92 365.65C400.92 365.65 376.16 312.89 381.54 311.37C386.92 309.85 398.2 318.25 398.2 318.25C398.2 318.25 365.1 229.55 373.67 222.67C382.24 215.79 398.24 251 398.24 251C398.24 251 381.15 196.67 383.16 176C385.17 155.33 406.88 175.24 406.88 175.24C406.88 175.24 389.49 101.07 405.64 97.2399C421.79 93.4099 421.25 182.11 421.25 182.11C421.25 182.11 426.55 118.64 433.02 136.23C439.49 153.82 425.89 212.69 425.89 212.69C425.89 212.69 434.76 192.81 439.69 211.16C444.62 229.51 429.89 303.68 429.89 303.68C429.89 303.68 442.41 291.45 443.58 306.74C444.75 322.03 417.66 369.44 417.66 369.44L402.33 371L400.92 365.65Z" fill="#D91E2E"/>
<path opacity="0.6" d="M400.92 365.65C400.92 365.65 376.16 312.89 381.54 311.37C386.92 309.85 398.2 318.25 398.2 318.25C398.2 318.25 365.1 229.55 373.67 222.67C382.24 215.79 398.24 251 398.24 251C398.24 251 381.15 196.67 383.16 176C385.17 155.33 406.88 175.24 406.88 175.24C406.88 175.24 389.49 101.07 405.64 97.2399C421.79 93.4099 421.25 182.11 421.25 182.11C421.25 182.11 426.55 118.64 433.02 136.23C439.49 153.82 425.89 212.69 425.89 212.69C425.89 212.69 434.76 192.81 439.69 211.16C444.62 229.51 429.89 303.68 429.89 303.68C429.89 303.68 442.41 291.45 443.58 306.74C444.75 322.03 417.66 369.44 417.66 369.44L402.33 371L400.92 365.65Z" fill="white"/>
<path d="M406.21 368C406.21 368 385.57 331.3 389.39 324.41C393.21 317.52 404.68 333.59 404.68 333.59C404.68 333.59 378.68 268.59 382.51 262.48C386.34 256.37 398.57 283.13 398.57 283.13C398.57 283.13 393.98 193.67 401.62 196.72C409.26 199.77 410 242.55 410 242.55C410 242.55 405.42 140.86 412.3 143.92C419.18 146.98 418.42 260.14 418.42 260.14C418.42 260.14 432.18 216.55 434.47 236.43C436.76 256.31 416.89 309.84 416.89 309.84C416.89 309.84 436 267.78 438.33 290C440.66 312.22 423 353.42 423 353.42C423 353.42 429.88 336.6 429.88 345.77C429.88 354.94 424.53 366.42 424.53 366.42" stroke="#263238" stroke-linecap="round" stroke-linejoin="round"/>
<path d="M349.42 254.24L377.27 315.02L359.75 319.96L339.09 294.24L349.42 254.24Z" fill="#D91E2E"/>
<g opacity="0.1">
<path opacity="0.1" d="M344.39 273.7L343.21 278.29L366.34 318.1L369.66 317.17L344.39 273.7Z" fill="black"/>
<path opacity="0.1" d="M359.88 319.93L363.22 318.99L341.7 284.12L340.55 288.59L359.88 319.93Z" fill="black"/>
<path opacity="0.1" d="M347.25 262.63L346.03 267.37L372.59 316.34L375.87 315.41L347.25 262.63Z" fill="black"/>
</g>
<path d="M349.42 254.24L377.27 315.02L359.75 319.96L339.09 294.24L349.42 254.24Z" stroke="#263238" stroke-linecap="round" stroke-linejoin="round"/>
<path d="M294.031 237.31L257.761 254.02L277.101 332.49L270.941 365.5H339.751L332.941 329.63L349.641 254.24L311.611 238.63L294.031 237.31Z" fill="#D91E2E"/>
<g opacity="0.1">
<path opacity="0.1" d="M294.361 365.5L295.751 334.24C295.765 334.094 295.765 333.946 295.751 333.8L281.501 243.09L277.301 245.02L291.301 334.27L289.911 365.5H294.361Z" fill="black"/>
<path opacity="0.1" d="M302.7 326.76C302.7 326.76 302.7 326.68 302.7 326.64L291.4 238.52L287.17 240.52L298.27 327.19L301.13 365.55H305.59L302.7 326.76Z" fill="black"/>
<path opacity="0.1" d="M281.78 365.5L285.78 334.99C285.815 334.765 285.815 334.535 285.78 334.31L270.53 248.16L266.36 250.08L281.36 334.75L277.36 365.5H281.78Z" fill="black"/>
<path opacity="0.1" d="M348.061 253.59L343.871 251.87L328.581 330.94C328.536 331.198 328.536 331.462 328.581 331.72L334.081 365.5H338.591L333.001 331.4L333.131 330.75L332.911 329.63L336.261 314.54L348.061 253.59Z" fill="black"/>
<path opacity="0.1" d="M307.98 246.29L303.54 246.42L307.23 365.5H311.67L307.98 246.29Z" fill="black"/>
<path opacity="0.1" d="M323.57 330.82L338.34 249.6L334.14 247.87L319.14 330.41C319.09 330.664 319.09 330.926 319.14 331.18L325 365.5H329.51L323.57 330.82Z" fill="black"/>
<path opacity="0.1" d="M315.5 328.06L326.73 244.83L322.48 243.09L311.06 327.74C311.036 327.919 311.036 328.101 311.06 328.28L315.2 365.5H319.67L315.5 328.06Z" fill="black"/>
</g>
<path d="M294.031 237.31L257.761 254.02L277.101 332.49L270.941 365.5H339.751L332.941 329.63L349.641 254.24L311.611 238.63L294.031 237.31Z" stroke="#263238" stroke-linecap="round" stroke-linejoin="round"/>
<path d="M257.76 254.02L229.19 315.89L247.43 319.74L268.09 294.02L257.76 254.02Z" fill="#D91E2E"/>
<g opacity="0.1">
<path opacity="0.1" d="M265.271 283.1L245.371 319.31L247.431 319.74L252.191 313.81L266.481 287.81L265.271 283.1Z" fill="black"/>
<path opacity="0.1" d="M263.481 276.18L262.181 271.14L239.971 318.17L243.321 318.88L263.481 276.18Z" fill="black"/>
<path opacity="0.1" d="M232.721 316.63L236.071 317.34L260.641 265.17L259.331 260.11L232.721 316.63Z" fill="black"/>
</g>
<path d="M257.011 264.32L267.091 291.37L256.971 275.88" stroke="#263238" stroke-miterlimit="10"/>
<path d="M257.76 254.02L229.19 315.89L247.43 319.74L268.09 294.02L257.76 254.02Z" stroke="#263238" stroke-linecap="round" stroke-linejoin="round"/>
<path d="M248.74 310.51L284.79 351.62L277.79 359.53L232.36 323.35C232.36 323.35 226.13 320.35 229.87 314.25" fill="#D91E2E"/>
<g opacity="0.1">
<path opacity="0.1" d="M281.01 354.48L284.39 351.59L266.21 330.43L248.74 310.51L244.04 311.44L281.01 354.48Z" fill="black"/>
<path opacity="0.1" d="M273.81 356.38L276.82 358.78L279.65 356.29L240.77 312.09L235.73 313.08L273.81 356.38Z" fill="black"/>
</g>
<path d="M248.74 310.51L284.79 351.62L277.79 359.53L232.36 323.35C232.36 323.35 226.13 320.35 229.87 314.25" stroke="#263238" stroke-linecap="round" stroke-linejoin="round"/>
<path d="M279 350.07C280 349.51 297.39 345.35 297.63 347.48C297.87 349.61 303.05 351.96 305.41 351.96C307.77 351.96 310.13 350.07 310.6 352.9C311.07 355.73 308.48 355.97 306.36 356.2C304.24 356.43 296.92 354.08 296.92 354.08C296.92 354.08 290.08 359.74 287.25 361.15C284.42 362.56 279.25 362.15 277.35 360.68C275.45 359.21 272.88 353.37 279 350.07Z" fill="white" stroke="#263238" stroke-linecap="round" stroke-linejoin="round"/>
<path d="M295.05 347.24C295.05 347.24 301.65 345.35 303.05 346.06C304.45 346.77 305.18 360.92 305.18 360.92C305.18 360.92 304.47 362.33 303.05 360.92C301.63 359.51 296.92 348.92 296.92 348.92" fill="white"/>
<path d="M295.05 347.24C295.05 347.24 301.65 345.35 303.05 346.06C304.45 346.77 305.18 360.92 305.18 360.92C305.18 360.92 304.47 362.33 303.05 360.92C301.63 359.51 296.92 348.92 296.92 348.92" stroke="#263238" stroke-linecap="round" stroke-linejoin="round"/>
<path d="M291.74 347.71C291.74 347.71 298.58 346.06 300 348.65C301.42 351.24 304.95 362.8 302.12 363.28C299.29 363.76 298.35 359.97 298.35 359.97L293.87 351.72L290.8 351.25" fill="white"/>
<path d="M291.74 347.71C291.74 347.71 298.58 346.06 300 348.65C301.42 351.24 304.95 362.8 302.12 363.28C299.29 363.76 298.35 359.97 298.35 359.97L293.87 351.72L290.8 351.25" stroke="#263238" stroke-linecap="round" stroke-linejoin="round"/>
<path d="M289.391 349.83C289.391 349.83 292.691 348.42 294.341 349.6C295.991 350.78 303.541 362.8 302.121 363.28C300.701 363.76 297.401 363.51 296.931 362.57C296.461 361.63 290.331 353.57 290.331 353.57" fill="white"/>
<path d="M289.391 349.83C289.391 349.83 292.691 348.42 294.341 349.6C295.991 350.78 303.541 362.8 302.121 363.28C300.701 363.76 297.401 363.51 296.931 362.57C296.461 361.63 290.331 353.57 290.331 353.57" stroke="#263238" stroke-linecap="round" stroke-linejoin="round"/>
<path d="M287 353.84C287 353.84 290.06 351.01 291.71 351.96C293.36 352.91 300.2 361.86 298.79 362.8C297.38 363.74 296.43 362.8 295.02 360.92C294.009 359.652 292.816 358.54 291.48 357.62L288.65 358.56" fill="white"/>
<path d="M287 353.84C287 353.84 290.06 351.01 291.71 351.96C293.36 352.91 300.2 361.86 298.79 362.8C297.38 363.74 296.43 362.8 295.02 360.92C294.009 359.652 292.816 358.54 291.48 357.62L288.65 358.56" stroke="#263238" stroke-linecap="round" stroke-linejoin="round"/>
<path d="M356.681 311.83L344.681 352.66L353.361 358.72L372.971 327.2C372.971 327.2 381.031 318.1 375.971 312.98" fill="#D91E2E"/>
<g opacity="0.1">
<path opacity="0.1" d="M353.63 358.23L353.78 357.98L370.39 312.65L365.75 312.37L349.7 356.19L351.5 357.44L353.63 358.23Z" fill="black"/>
<path opacity="0.1" d="M344.7 352.69L348.47 355.33L363.97 312.39L363.54 312.24L359.39 311.99L344.7 352.69Z" fill="black"/>
<path opacity="0.1" d="M377.34 315.37C377.074 314.467 376.586 313.645 375.92 312.98L373.54 312.84L361 346.43L372.92 327.25L377.34 315.37Z" fill="black"/>
</g>
<path d="M356.681 311.83L344.681 352.66L353.361 358.72L372.971 327.2C372.971 327.2 381.031 318.1 375.971 312.98" stroke="#263238" stroke-linecap="round" stroke-linejoin="round"/>
<path d="M350.72 350.07C349.72 349.51 332.32 345.35 332.09 347.48C331.86 349.61 326.66 351.96 324.31 351.96C321.96 351.96 319.59 350.07 319.12 352.9C318.65 355.73 321.24 355.97 323.36 356.2C325.48 356.43 332.8 354.08 332.8 354.08C332.8 354.08 339.64 359.74 342.47 361.15C345.3 362.56 350.47 362.15 352.37 360.68C354.27 359.21 356.85 353.37 350.72 350.07Z" fill="white" stroke="#263238" stroke-linecap="round" stroke-linejoin="round"/>
<path d="M334.681 347.24C334.681 347.24 328.081 345.35 326.681 346.06C325.281 346.77 324.561 360.92 324.561 360.92C324.561 360.92 325.271 362.33 326.681 360.92C328.091 359.51 332.821 348.92 332.821 348.92" fill="white"/>
<path d="M334.681 347.24C334.681 347.24 328.081 345.35 326.681 346.06C325.281 346.77 324.561 360.92 324.561 360.92C324.561 360.92 325.271 362.33 326.681 360.92C328.091 359.51 332.821 348.92 332.821 348.92" stroke="#263238" stroke-linecap="round" stroke-linejoin="round"/>
<path d="M338.001 347.71C338.001 347.71 331.171 346.06 329.751 348.65C328.331 351.24 324.751 362.8 327.631 363.28C330.511 363.76 331.401 359.97 331.401 359.97L335.881 351.72L338.951 351.25" fill="white"/>
<path d="M338.001 347.71C338.001 347.71 331.171 346.06 329.751 348.65C328.331 351.24 324.751 362.8 327.631 363.28C330.511 363.76 331.401 359.97 331.401 359.97L335.881 351.72L338.951 351.25" stroke="#263238" stroke-linecap="round" stroke-linejoin="round"/>
<path d="M340.34 349.83C340.34 349.83 337.04 348.42 335.39 349.6C333.74 350.78 326.19 362.8 327.61 363.28C329.03 363.76 332.32 363.51 332.8 362.57C333.28 361.63 339.4 353.57 339.4 353.57" fill="white"/>
<path d="M340.34 349.83C340.34 349.83 337.04 348.42 335.39 349.6C333.74 350.78 326.19 362.8 327.61 363.28C329.03 363.76 332.32 363.51 332.8 362.57C333.28 361.63 339.4 353.57 339.4 353.57" stroke="#263238" stroke-linecap="round" stroke-linejoin="round"/>
<path d="M342.701 353.84C342.701 353.84 339.641 351 338.001 352C336.361 353 329.511 361.9 330.931 362.84C332.351 363.78 333.291 362.84 334.701 360.96C335.712 359.692 336.905 358.58 338.241 357.66L341.071 358.6" fill="white"/>
<path d="M342.701 353.84C342.701 353.84 339.641 351 338.001 352C336.361 353 329.511 361.9 330.931 362.84C332.351 363.78 333.291 362.84 334.701 360.96C335.712 359.692 336.905 358.58 338.241 357.66L341.071 358.6" stroke="#263238" stroke-linecap="round" stroke-linejoin="round"/>
<path d="M296.66 233.13C296.66 233.13 290.95 234.89 288.53 238.41C286.11 241.93 288.97 269.18 288.97 269.18L307.22 259.07L326.34 271.16C326.34 271.16 324.58 243.25 323.04 239.29C321.5 235.33 311.83 230.72 308.53 231.16C305.23 231.6 296.66 233.13 296.66 233.13Z" fill="#D91E2E" stroke="#263238" stroke-linecap="round" stroke-linejoin="round"/>
<path d="M294.03 217.97V243.25L306.12 275.78L316.45 242.59V217.75L294.03 217.97Z" fill="white" stroke="#263238" stroke-linecap="round" stroke-linejoin="round"/>
<path d="M294 227.05C297.412 229.444 301.481 230.726 305.65 230.72C309.461 230.723 313.194 229.648 316.42 227.62V217.75L294 218V227.05Z" fill="#263238" stroke="#263238" stroke-linecap="round" stroke-linejoin="round"/>
<path d="M305.681 225C300.28 225 295.1 222.855 291.28 219.037C287.461 215.219 285.313 210.041 285.311 204.64L281.721 176C281.721 169.635 284.249 163.53 288.75 159.029C293.251 154.529 299.356 152 305.721 152C312.086 152 318.19 154.529 322.691 159.029C327.192 163.53 329.721 169.635 329.721 176L326.001 204.6C326.006 207.274 325.485 209.922 324.466 212.395C323.448 214.867 321.953 217.114 320.066 219.008C318.179 220.903 315.937 222.407 313.469 223.435C311.001 224.463 308.354 224.995 305.681 225Z" fill="white" stroke="#263238" stroke-linecap="round" stroke-linejoin="round"/>
<path d="M310.91 196.8C310.91 196.8 316.1 192.45 322.3 197.14" stroke="#263238" stroke-linecap="round" stroke-linejoin="round"/>
<path d="M301.53 196.3C299.988 195.319 298.153 194.905 296.34 195.13" stroke="#263238" stroke-linecap="round" stroke-linejoin="round"/>
<path d="M312.92 186.42C312.92 186.42 318.45 183.74 321.8 188.93" stroke="#263238" stroke-linecap="round" stroke-linejoin="round"/>
<path d="M304 208.36C304 208.36 306.35 210.2 308.36 208.36" stroke="#263238" stroke-linecap="round" stroke-linejoin="round"/>
<path d="M301.7 212.38C301.7 212.38 306.56 215.38 309.4 212.38" stroke="#263238" stroke-linecap="round" stroke-linejoin="round"/>
<path d="M315.921 173C315.921 173 295.84 191.54 290.24 205.05C284.64 218.56 289.66 232.67 292.75 236.73C295.84 240.79 297.75 241.36 297.75 241.36C297.75 241.36 287.13 245.42 280.18 234.8C273.23 224.18 274.96 212.2 277.09 203.9C279.22 195.6 278.63 171.26 283.46 163.15C288.29 155.04 295.24 149.05 306.83 150.4C318.42 151.75 324.591 157.74 328.261 165.27C331.931 172.8 330.191 185.55 331.351 191.15C332.511 196.75 337.531 213.55 338.691 223.59C339.851 233.63 326.16 240.78 324 241.75C322.532 242.367 320.962 242.706 319.37 242.75C319.37 242.75 324.001 219.58 324.971 206.25C325.941 192.92 326 185 326 185C326 185 316.891 173.58 315.921 173Z" fill="#263238"/>
<path d="M313.57 160C313.57 160 311.2 166.53 294.15 185.24C277.1 203.95 272.47 221.8 277.65 239.24" stroke="#707070" stroke-miterlimit="10"/>
<path d="M309.36 153.48C309.36 153.48 299.98 161.25 288.36 172.89C281.218 180.096 275.119 188.265 270.24 197.16" stroke="#707070" stroke-miterlimit="10"/>
<path d="M317.771 161.57C317.771 161.57 324.891 174.51 328.771 182.28C332.651 190.05 337.191 233.72 323.601 249.28" stroke="#707070" stroke-miterlimit="10"/>
<path d="M312.92 150.89L315.92 173" stroke="#707070" stroke-miterlimit="10"/>
<path d="M315.921 173C315.921 173 295.84 191.54 290.24 205.05C284.64 218.56 289.66 232.67 292.75 236.73C295.84 240.79 297.75 241.36 297.75 241.36C297.75 241.36 287.13 245.42 280.18 234.8C273.23 224.18 274.96 212.2 277.09 203.9C279.22 195.6 278.63 171.26 283.46 163.15C288.29 155.04 295.24 149.05 306.83 150.4C318.42 151.75 324.591 157.74 328.261 165.27C331.931 172.8 330.191 185.55 331.351 191.15C332.511 196.75 337.531 213.55 338.691 223.59C339.851 233.63 326.16 240.78 324 241.75C322.532 242.367 320.962 242.706 319.37 242.75C319.37 242.75 324.001 219.58 324.971 206.25C325.941 192.92 326 185 326 185C326 185 316.891 173.58 315.921 173Z" stroke="#263238" stroke-linecap="round" stroke-linejoin="round"/>
<path d="M279.74 185.94H276.78C275.146 185.94 273.82 187.265 273.82 188.9V200.75C273.82 202.385 275.146 203.71 276.78 203.71H279.74C281.375 203.71 282.7 202.385 282.7 200.75V188.9C282.7 187.265 281.375 185.94 279.74 185.94Z" fill="white" stroke="#263238" stroke-linecap="round" stroke-linejoin="round"/>
<path d="M334.01 185.94H331.05C329.415 185.94 328.09 187.265 328.09 188.9V200.75C328.09 202.385 329.415 203.71 331.05 203.71H334.01C335.645 203.71 336.97 202.385 336.97 200.75V188.9C336.97 187.265 335.645 185.94 334.01 185.94Z" fill="white" stroke="#263238" stroke-linecap="round" stroke-linejoin="round"/>
<path d="M333.3 185.94V176.28C333.3 168.804 330.33 161.633 325.043 156.347C319.757 151.06 312.587 148.09 305.11 148.09C297.633 148.09 290.462 151.06 285.173 156.346C279.885 161.633 276.913 168.803 276.91 176.28V185.94" stroke="#263238" stroke-width="2" stroke-linejoin="round"/>
<path d="M332.53 203.62C332.53 203.62 331.28 213.29 319.45 217.23" stroke="#263238" stroke-linecap="round" stroke-linejoin="round"/>
<path d="M319.001 216.81C319.501 218.26 318.091 220.06 315.841 220.81C313.591 221.56 311.381 221.05 310.841 219.6C310.301 218.15 311.751 216.35 313.991 215.6C316.231 214.85 318.531 215.36 319.001 216.81Z" stroke="#263238" stroke-linecap="round" stroke-linejoin="round"/>
<path d="M116.6 229.28L75.2803 248.97L87.2003 365.74H169.57L181.22 247.03L142.39 229L116.6 229.28Z" fill="#D91E2E" stroke="#263238" stroke-linecap="round" stroke-linejoin="round"/>
<path d="M133.161 264.91C133.934 264.91 134.561 264.283 134.561 263.51C134.561 262.737 133.934 262.11 133.161 262.11C132.388 262.11 131.761 262.737 131.761 263.51C131.761 264.283 132.388 264.91 133.161 264.91Z" fill="#263238"/>
<path d="M134.561 271.91C134.561 272.187 134.479 272.458 134.325 272.688C134.171 272.918 133.952 273.097 133.697 273.203C133.441 273.309 133.159 273.337 132.888 273.283C132.616 273.229 132.367 273.096 132.171 272.9C131.975 272.704 131.842 272.455 131.788 272.183C131.734 271.912 131.761 271.63 131.867 271.374C131.973 271.118 132.153 270.9 132.383 270.746C132.613 270.592 132.884 270.51 133.161 270.51C133.532 270.51 133.888 270.657 134.151 270.92C134.413 271.183 134.561 271.539 134.561 271.91V271.91Z" fill="#263238"/>
<path d="M147.491 235.24L136.201 247.83L131.381 260.06L126.191 247.65L115.271 235.24V213.2H147.491V235.24Z" fill="white" stroke="#263238" stroke-linecap="round" stroke-linejoin="round"/>
<path d="M115.271 223C117.396 225.584 120.068 227.664 123.094 229.09C126.12 230.517 129.425 231.255 132.771 231.25V231.25C138.17 231.257 143.393 229.326 147.491 225.81V213.2H115.271V223Z" fill="#263238" stroke="#263238" stroke-linecap="round" stroke-linejoin="round"/>
<path d="M135.04 151.52H130.5C119.222 151.52 110.08 160.662 110.08 171.94V204.63C110.08 215.908 119.222 225.05 130.5 225.05H135.04C146.318 225.05 155.46 215.908 155.46 204.63V171.94C155.46 160.662 146.318 151.52 135.04 151.52Z" fill="white" stroke="#263238" stroke-linecap="round" stroke-linejoin="round"/>
<path d="M137.12 184.12L136.45 200.19C136.437 200.886 136.211 201.562 135.801 202.125C135.391 202.689 134.819 203.113 134.16 203.34C132.95 203.71 131.57 203.34 130.82 200.61" stroke="#263238" stroke-linecap="round" stroke-linejoin="round"/>
<path d="M124 206.53H142C142 206.53 138.85 213.39 132.74 213.39C126.63 213.39 124 206.53 124 206.53Z" fill="#263238" stroke="#263238" stroke-linecap="round" stroke-linejoin="round"/>
<path d="M125.28 208.94H140.44C141.016 208.186 141.519 207.379 141.94 206.53H124C124.342 207.375 124.771 208.183 125.28 208.94Z" fill="white" stroke="#263238" stroke-linecap="round" stroke-linejoin="round"/>
<path d="M123.79 191.35C124.508 191.35 125.09 189.98 125.09 188.29C125.09 186.6 124.508 185.23 123.79 185.23C123.072 185.23 122.49 186.6 122.49 188.29C122.49 189.98 123.072 191.35 123.79 191.35Z" fill="#263238"/>
<path d="M143.231 191.35C143.949 191.35 144.531 189.98 144.531 188.29C144.531 186.6 143.949 185.23 143.231 185.23C142.513 185.23 141.931 186.6 141.931 188.29C141.931 189.98 142.513 191.35 143.231 191.35Z" fill="#263238"/>
<path d="M139.16 180.23C139.16 180.23 143.6 177.45 148.61 181.9" stroke="#263238" stroke-linecap="round" stroke-linejoin="round"/>
<path d="M132.77 151.52C126.752 151.52 120.981 153.911 116.726 158.166C112.471 162.421 110.08 168.192 110.08 174.21V194.88H110.27H112.12V186.36C112.12 186.36 121.38 186.36 132.31 180.44C143.24 174.52 146 164.86 146 164.86C146 164.86 148.41 176.53 151 178.75L153.6 180.97V195.05H155.45V174.21C155.45 168.194 153.061 162.424 148.808 158.169C144.555 153.914 138.786 151.523 132.77 151.52V151.52Z" fill="#263238" stroke="#263238" stroke-linecap="round" stroke-linejoin="round"/>
<path d="M105.83 183.94H110.08V200.79H105.83C104.748 200.79 103.71 200.36 102.945 199.595C102.18 198.83 101.75 197.792 101.75 196.71V188C101.755 186.921 102.187 185.889 102.952 185.128C103.717 184.367 104.751 183.94 105.83 183.94V183.94Z" fill="white" stroke="#263238" stroke-linecap="round" stroke-linejoin="round"/>
<path d="M159.441 200.79H155.191V183.94H159.441C159.976 183.94 160.507 184.045 161.002 184.25C161.497 184.455 161.947 184.756 162.326 185.135C162.704 185.514 163.005 185.963 163.21 186.458C163.415 186.953 163.521 187.484 163.521 188.02V196.73C163.515 197.808 163.083 198.841 162.318 199.602C161.554 200.363 160.519 200.79 159.441 200.79Z" fill="white" stroke="#263238" stroke-linecap="round" stroke-linejoin="round"/>
<path d="M106.38 183.94V173.19C106.38 166.215 109.151 159.525 114.083 154.593C119.015 149.661 125.705 146.89 132.68 146.89V146.89C139.654 146.893 146.342 149.664 151.274 154.596C156.205 159.528 158.977 166.216 158.98 173.19V183.94" stroke="#263238" stroke-width="2" stroke-linejoin="round"/>
<path d="M159 200.79C159 200.79 157.7 210.79 145.48 214.87" stroke="#263238" stroke-linecap="round" stroke-linejoin="round"/>
<path d="M145 214.43C145.52 215.93 144.06 217.79 141.74 218.6C139.42 219.41 137.12 218.84 136.6 217.34C136.08 215.84 137.54 213.98 139.86 213.17C142.18 212.36 144.51 212.93 145 214.43Z" stroke="#263238" stroke-linecap="round" stroke-linejoin="round"/>
<path d="M75.2801 248.97L40.3301 322.92L54.7501 335.5L80.8201 302.78L75.2801 248.97Z" fill="#D91E2E" stroke="#263238" stroke-linecap="round" stroke-linejoin="round"/>
<path d="M72.4103 271.64L80.9003 300.28L70.8203 283.83" stroke="#263238" stroke-miterlimit="10"/>
<path d="M181.22 247.03L214.5 321.36L193.98 330.24L175.67 300.84L181.22 247.03Z" fill="#D91E2E" stroke="#263238" stroke-linecap="round" stroke-linejoin="round"/>
<path d="M59.1903 321.08L89.1403 349.09L80.8203 358.8L37.2803 331.79L42.2803 318.48" fill="#D91E2E"/>
<path d="M59.1903 321.08L89.1403 349.09L80.8203 358.8L37.2803 331.79L42.2803 318.48" stroke="#263238" stroke-linecap="round" stroke-linejoin="round"/>
<path d="M84.1507 347.43C85.3707 346.77 105.781 341.88 106.061 344.38C106.341 346.88 112.441 349.65 115.211 349.65C117.981 349.65 120.761 347.43 121.311 350.76C121.861 354.09 118.821 354.36 116.311 354.64C113.801 354.92 105.221 352.14 105.221 352.14C105.221 352.14 97.2207 358.8 93.8507 360.47C90.4807 362.14 84.4207 361.57 82.2007 359.91C79.9807 358.25 76.9407 351.31 84.1507 347.43Z" fill="white" stroke="#263238" stroke-linecap="round" stroke-linejoin="round"/>
<path d="M103 344.1C103 344.1 110.77 341.88 112.43 342.72C114.09 343.56 114.93 360.19 114.93 360.19C114.93 360.19 114.09 361.85 112.43 360.19C110.77 358.53 105.23 346 105.23 346" fill="white"/>
<path d="M103 344.1C103 344.1 110.77 341.88 112.43 342.72C114.09 343.56 114.93 360.19 114.93 360.19C114.93 360.19 114.09 361.85 112.43 360.19C110.77 358.53 105.23 346 105.23 346" stroke="#263238" stroke-linecap="round" stroke-linejoin="round"/>
<path d="M99.1305 344.66C99.1305 344.66 107.131 342.72 108.831 345.77C110.531 348.82 114.661 362.41 111.331 362.96C108.001 363.51 106.891 359.08 106.891 359.08L101.621 349.37L98.0205 348.82" fill="white"/>
<path d="M99.1305 344.66C99.1305 344.66 107.131 342.72 108.831 345.77C110.531 348.82 114.661 362.41 111.331 362.96C108.001 363.51 106.891 359.08 106.891 359.08L101.621 349.37L98.0205 348.82" stroke="#263238" stroke-linecap="round" stroke-linejoin="round"/>
<path d="M96.3506 347.15C96.3506 347.15 100.241 345.49 102.181 346.88C104.121 348.27 113.001 362.41 111.331 363C109.661 363.59 105.781 363.28 105.231 362.17C104.681 361.06 97.4606 351.63 97.4606 351.63" fill="white"/>
<path d="M96.3506 347.15C96.3506 347.15 100.241 345.49 102.181 346.88C104.121 348.27 113.001 362.41 111.331 363C109.661 363.59 105.781 363.28 105.231 362.17C104.681 361.06 97.4606 351.63 97.4606 351.63" stroke="#263238" stroke-linecap="round" stroke-linejoin="round"/>
<path d="M93.5801 351.87C93.5801 351.87 97.1901 348.54 99.1301 349.65C101.07 350.76 109.13 361.3 107.45 362.41C105.77 363.52 104.67 362.41 103.01 360.19C101.822 358.696 100.42 357.385 98.8501 356.3L95.5201 357.41" fill="white"/>
<path d="M93.5801 351.87C93.5801 351.87 97.1901 348.54 99.1301 349.65C101.07 350.76 109.13 361.3 107.45 362.41C105.77 363.52 104.67 362.41 103.01 360.19C101.822 358.696 100.42 357.385 98.8501 356.3L95.5201 357.41" stroke="#263238" stroke-linecap="round" stroke-linejoin="round"/>
<path d="M188.951 314L171.391 351.06L182.691 357.03L215.901 321.84L206.371 311.29" fill="#D91E2E"/>
<path d="M188.951 314L171.391 351.06L182.691 357.03L215.901 321.84L206.371 311.29" stroke="#263238" stroke-linecap="round" stroke-linejoin="round"/>
<path d="M180.18 347.43C178.96 346.77 158.54 341.88 158.27 344.38C158 346.88 151.89 349.65 149.11 349.65C146.33 349.65 143.57 347.43 143.01 350.76C142.45 354.09 145.51 354.36 148.01 354.64C150.51 354.92 159.1 352.14 159.1 352.14C159.1 352.14 167.1 358.8 170.47 360.47C173.84 362.14 179.9 361.57 182.12 359.91C184.34 358.25 187.39 351.31 180.18 347.43Z" fill="white" stroke="#263238" stroke-linecap="round" stroke-linejoin="round"/>
<path d="M161.321 344.1C161.321 344.1 153.551 341.88 151.891 342.72C150.231 343.56 149.391 360.19 149.391 360.19C149.391 360.19 150.221 361.85 151.891 360.19C153.561 358.53 159.101 346 159.101 346" fill="white"/>
<path d="M161.321 344.1C161.321 344.1 153.551 341.88 151.891 342.72C150.231 343.56 149.391 360.19 149.391 360.19C149.391 360.19 150.221 361.85 151.891 360.19C153.561 358.53 159.101 346 159.101 346" stroke="#263238" stroke-linecap="round" stroke-linejoin="round"/>
<path d="M165.2 344.66C165.2 344.66 157.2 342.72 155.49 345.77C153.78 348.82 149.67 362.41 153 363C156.33 363.59 157.43 359.12 157.43 359.12L162.7 349.41L166.31 348.86" fill="white"/>
<path d="M165.2 344.66C165.2 344.66 157.2 342.72 155.49 345.77C153.78 348.82 149.67 362.41 153 363C156.33 363.59 157.43 359.12 157.43 359.12L162.7 349.41L166.31 348.86" stroke="#263238" stroke-linecap="round" stroke-linejoin="round"/>
<path d="M168 347.15C168 347.15 164.12 345.49 162.18 346.88C160.24 348.27 151.33 362.41 153 363C154.67 363.59 158.54 363.28 159.1 362.17C159.66 361.06 166.86 351.63 166.86 351.63" fill="white"/>
<path d="M168 347.15C168 347.15 164.12 345.49 162.18 346.88C160.24 348.27 151.33 362.41 153 363C154.67 363.59 158.54 363.28 159.1 362.17C159.66 361.06 166.86 351.63 166.86 351.63" stroke="#263238" stroke-linecap="round" stroke-linejoin="round"/>
<path d="M170.75 351.87C170.75 351.87 167.14 348.54 165.2 349.65C163.26 350.76 155.2 361.3 156.88 362.41C158.56 363.52 159.65 362.41 161.32 360.19C162.508 358.696 163.91 357.385 165.48 356.3L168.81 357.41" fill="white"/>
<path d="M170.75 351.87C170.75 351.87 167.14 348.54 165.2 349.65C163.26 350.76 155.2 361.3 156.88 362.41C158.56 363.52 159.65 362.41 161.32 360.19C162.508 358.696 163.91 357.385 165.48 356.3L168.81 357.41" stroke="#263238" stroke-linecap="round" stroke-linejoin="round"/>
<path d="M232.66 109.21H167.66C164.646 109.21 161.756 110.406 159.624 112.537C157.492 114.667 156.293 117.556 156.29 120.57V139.57C156.282 141.066 156.57 142.55 157.137 143.935C157.703 145.32 158.538 146.58 159.592 147.641C160.647 148.703 161.9 149.547 163.281 150.123C164.662 150.699 166.144 150.997 167.64 151H175.64L164.73 165.27L189.26 151H232.66C234.153 150.996 235.631 150.698 237.009 150.123C238.387 149.548 239.638 148.707 240.691 147.649C241.744 146.59 242.578 145.334 243.146 143.953C243.714 142.572 244.004 141.093 244 139.6V120.6C244.006 117.586 242.814 114.694 240.688 112.558C238.561 110.422 235.674 109.218 232.66 109.21V109.21Z" fill="white" stroke="#263238" stroke-miterlimit="10"/>
<path d="M191.231 131.41C191.233 131.935 191.079 132.448 190.789 132.885C190.499 133.322 190.086 133.663 189.602 133.865C189.118 134.068 188.585 134.121 188.07 134.02C187.555 133.919 187.082 133.668 186.71 133.297C186.339 132.927 186.085 132.455 185.982 131.941C185.879 131.426 185.931 130.893 186.131 130.408C186.332 129.923 186.671 129.509 187.107 129.217C187.543 128.926 188.056 128.77 188.581 128.77C189.282 128.77 189.954 129.048 190.451 129.543C190.948 130.037 191.228 130.709 191.231 131.41V131.41Z" fill="#263238"/>
<path d="M202.79 131.41C202.792 131.935 202.638 132.449 202.348 132.886C202.057 133.323 201.644 133.665 201.159 133.866C200.674 134.068 200.141 134.122 199.626 134.02C199.111 133.918 198.638 133.665 198.266 133.294C197.895 132.923 197.643 132.45 197.541 131.935C197.439 131.42 197.492 130.886 197.694 130.401C197.896 129.917 198.237 129.503 198.674 129.212C199.112 128.922 199.625 128.768 200.15 128.77C200.85 128.77 201.522 129.048 202.017 129.543C202.512 130.038 202.79 130.71 202.79 131.41Z" fill="#263238"/>
<path d="M214.35 131.41C214.35 131.932 214.195 132.443 213.905 132.877C213.615 133.311 213.203 133.649 212.721 133.849C212.238 134.049 211.707 134.101 211.195 133.999C210.683 133.897 210.213 133.646 209.844 133.277C209.474 132.908 209.223 132.437 209.121 131.925C209.019 131.413 209.071 130.882 209.271 130.4C209.471 129.917 209.809 129.505 210.244 129.215C210.678 128.925 211.188 128.77 211.71 128.77C212.41 128.77 213.082 129.048 213.577 129.543C214.072 130.038 214.35 130.71 214.35 131.41Z" fill="#263238"/>
<path d="M365.45 362.73H244.31V367.62H365.45V362.73Z" fill="white" stroke="#263238" stroke-linecap="round" stroke-linejoin="round"/>
<path d="M384.06 362.73H278.47V367.62H384.06V362.73Z" fill="white" stroke="#263238" stroke-linecap="round" stroke-linejoin="round"/>
<path d="M386.11 354.04H285.09L295.98 276.91H397L386.11 354.04Z" fill="white" stroke="#263238" stroke-linecap="round" stroke-linejoin="round"/>
<path d="M390.29 354.04H289.27L300.16 276.91H401.18L390.29 354.04Z" fill="#263238" stroke="#263238" stroke-linecap="round" stroke-linejoin="round"/>
<path d="M359.33 318.19L369.47 367.61H343.4L333.27 318.19H359.33ZM341.65 332.86C341.699 333.061 341.815 333.239 341.978 333.366C342.141 333.493 342.343 333.561 342.55 333.56L357.32 333.42C357.458 333.418 357.594 333.385 357.718 333.323C357.842 333.261 357.95 333.172 358.035 333.062C358.119 332.953 358.178 332.825 358.206 332.69C358.235 332.554 358.233 332.414 358.2 332.28L356.87 326.74C356.82 326.538 356.705 326.358 356.542 326.23C356.379 326.101 356.177 326.031 355.97 326.03L341.2 326.17C341.061 326.172 340.925 326.206 340.801 326.268C340.676 326.329 340.568 326.418 340.482 326.527C340.397 326.637 340.337 326.764 340.307 326.899C340.277 327.035 340.278 327.175 340.31 327.31L341.65 332.86Z" fill="white" stroke="#263238" stroke-linecap="round" stroke-linejoin="round"/>
<path d="M186.27 362.73H65.1299V367.62H186.27V362.73Z" fill="white" stroke="#263238" stroke-linecap="round" stroke-linejoin="round"/>
<path d="M204.88 362.73H99.29V367.62H204.88V362.73Z" fill="white" stroke="#263238" stroke-linecap="round" stroke-linejoin="round"/>
<path d="M206.93 354.04H105.91L116.8 276.91H217.82L206.93 354.04Z" fill="white" stroke="#263238" stroke-linecap="round" stroke-linejoin="round"/>
<path d="M211.11 354.04H110.09L120.98 276.91H222L211.11 354.04Z" fill="#263238" stroke="#263238" stroke-linecap="round" stroke-linejoin="round"/>
<path d="M180.16 318.19L190.29 367.61H164.22L154.09 318.19H180.16ZM162.47 332.86C162.521 333.06 162.637 333.237 162.8 333.364C162.963 333.491 163.163 333.56 163.37 333.56L178.14 333.42C178.278 333.418 178.415 333.384 178.539 333.322C178.663 333.26 178.772 333.172 178.857 333.062C178.942 332.953 179.002 332.826 179.032 332.691C179.062 332.555 179.061 332.415 179.03 332.28L177.69 326.74C177.642 326.537 177.527 326.357 177.364 326.228C177.2 326.099 176.998 326.029 176.79 326.03L162.02 326.17C161.881 326.172 161.745 326.205 161.621 326.267C161.498 326.329 161.389 326.418 161.305 326.528C161.22 326.637 161.162 326.764 161.133 326.9C161.104 327.035 161.107 327.176 161.14 327.31L162.47 332.86Z" fill="white" stroke="#263238" stroke-linecap="round" stroke-linejoin="round"/>
<path d="M433.75 367.61H2.83008V372.45H433.75V367.61Z" fill="#263238" stroke="#263238" stroke-linecap="round" stroke-linejoin="round"/>
</svg>
