<svg width="454" height="325" viewBox="0 0 454 325" fill="none" xmlns="http://www.w3.org/2000/svg">
<path d="M454 308.912L397.25 308.653L340.5 308.556L227 308.383L113.5 308.556L56.75 308.653L0 308.912L56.75 309.182L113.5 309.28L227 309.452L340.5 309.28L397.25 309.182L454 308.912Z" fill="#263238"/>
<path d="M343.513 175.834C334.401 217.198 315.557 266.782 307.512 274.83C297.334 285.006 230.002 303.673 226.648 304.051C218.365 304.926 201.664 242.476 210.527 241.125C223.987 239.095 273.023 236.318 275.953 233.175C278.883 230.031 299.695 202.657 320.962 171.902C335.644 150.653 349.176 150.167 343.513 175.834Z" fill="#EB9481"/>
<path d="M233.316 300.681C232.332 301.199 218.261 308.588 209.564 311.213C203.072 313.179 184.248 318.311 181.463 311.062C179.558 306.136 190.295 301.761 197.812 298.488C201.778 296.759 206.665 292.438 205.495 289.781C203.424 285.136 193.246 289.781 186.537 293.864C173.563 301.728 156.282 315.891 148.362 308.988C145.369 306.395 148.848 301.664 153.932 297.029C145.649 302.431 136.869 306.86 133.442 304.116C131.464 302.55 131.371 300.4 132.468 297.958C129.921 298.823 127.674 298.65 126.101 296.878C123.419 293.94 124.724 289.619 127.664 285.179C127.159 285.124 126.674 284.945 126.249 284.656C125.824 284.366 125.472 283.975 125.221 283.515C119.536 274.473 147.999 248.515 157.825 246.084C186.764 238.9 217.267 240.24 217.267 240.24C228.636 249.757 233.347 300.659 233.316 300.681Z" fill="#EB9481"/>
<path d="M190.761 272.885C183.87 274.008 177.288 276.649 171.451 280.631C164.11 285.686 159.243 291.606 153.093 297.559C153.069 297.592 153.056 297.634 153.058 297.676C153.059 297.718 153.075 297.759 153.102 297.791C153.128 297.822 153.165 297.843 153.205 297.85C153.245 297.857 153.286 297.85 153.321 297.829C156.251 294.998 168.407 284.347 171.544 281.927C177.219 277.472 183.79 274.421 190.761 273.004C190.854 272.993 190.833 272.864 190.761 272.885Z" fill="#263238"/>
<path d="M185.367 260.063C177.756 262.223 169.96 264.384 162.899 268.186C155.174 272.291 149.128 278.989 143.226 285.47C139.65 289.338 136.161 293.299 132.758 297.353C132.624 297.526 132.841 297.796 132.986 297.623C139.019 290.969 145.231 284.487 151.623 278.179C157.539 272.32 164.506 267.739 172.124 264.697C176.473 262.958 180.945 261.586 185.418 260.203C185.48 260.181 185.449 260.041 185.367 260.063Z" fill="#263238"/>
<path d="M177.239 248.86C169.846 250.448 163.396 251.798 156.852 255.925C148.186 261.402 139.82 270.617 136.89 273.89C133.649 277.498 130.522 281.214 127.457 284.984C127.333 285.136 127.581 285.373 127.716 285.222C134.74 276.956 142.269 269.172 150.257 261.921C154.014 258.41 158.268 255.524 162.868 253.365C167.531 251.455 172.342 249.966 177.249 248.914C177.249 248.914 177.301 248.849 177.239 248.86Z" fill="#263238"/>
<path d="M221.926 237.755L242.634 306.201C242.634 306.201 298.701 289.5 308.9 277.973C319.098 266.447 338.056 206.924 343.616 178.07C349.176 149.216 335.199 149.983 322.349 168.121C309.5 186.259 277.506 230.398 275.757 231.36C274.007 232.321 221.926 237.755 221.926 237.755Z" fill="#CC1319"/>
<path opacity="0.1" d="M221.926 237.755L242.634 306.201C242.634 306.201 298.701 289.5 308.9 277.973C319.098 266.447 338.056 206.924 343.616 178.07C349.176 149.216 335.199 149.983 322.349 168.121C309.5 186.259 277.506 230.398 275.757 231.36C274.007 232.321 221.926 237.755 221.926 237.755Z" fill="black"/>
<path d="M248.018 275.791C245.502 267.722 242.935 259.674 240.719 251.507C239.456 246.872 238.172 242.227 236.95 237.582C236.898 237.398 237.178 237.301 237.24 237.474C240.067 245.468 242.883 253.494 245.357 261.618C247.832 269.742 250.348 277.822 252.709 285.892C254.044 290.515 255.256 295.16 256.322 299.86C256.322 299.946 256.198 300 256.167 299.914C253.081 292.017 250.545 283.915 248.018 275.791Z" fill="#263238"/>
<path d="M270.911 296.792L273.396 295.884C278.066 294.145 282.828 292.276 287.312 290.364C287.891 290.126 288.461 289.878 289.02 289.629C289.921 289.241 290.822 288.841 291.691 288.441L292.996 287.847L293.462 287.631L294.808 286.983C296.589 286.129 298.276 285.276 299.85 284.412L300.886 283.807C303.346 282.486 305.664 280.897 307.802 279.064C307.999 278.881 308.195 278.697 308.372 278.514C308.548 278.33 308.734 278.146 308.889 277.973C319.14 266.447 338.046 206.924 343.606 178.07L343.792 177.076V176.86C344.165 174.7 344.496 171.956 344.766 169.018C345.542 154.661 339.03 152.317 330.985 158.625C310.929 203.532 280.209 277.736 270.911 296.792Z" fill="#263238"/>
<path d="M299.995 308.286L422.172 308.955C422.068 306.212 404.674 225.948 390.841 196.327C373.105 158.345 363.921 155.277 358.505 153.246C351.517 150.631 339.071 151.928 336.12 153.386C332.766 155.017 322.101 174.441 318.28 188.689C310.639 217.349 298.277 306.536 299.995 308.286Z" fill="#EBEBEB"/>
<path d="M364.769 156.249C364.769 156.249 349.239 216.258 348.462 220.244C347.292 226.034 339.547 308.653 339.547 308.653L424.708 308.955C424.708 308.955 406.123 232.473 392.29 198.984C377.194 162.255 364.769 156.249 364.769 156.249Z" fill="#CC1319"/>
<g opacity="0.1">
<path opacity="0.1" d="M364.769 156.249C364.769 156.249 349.239 216.258 348.462 220.244C347.292 226.034 339.547 308.653 339.547 308.653L424.708 308.955C424.708 308.955 406.123 232.473 392.29 198.984C377.194 162.255 364.769 156.249 364.769 156.249Z" fill="black"/>
</g>
<path d="M335.002 154.315C334.546 156.227 320.227 204.98 319.233 217.133C318.125 230.614 308.33 308.955 308.33 308.955H295.905C295.905 308.955 313.89 196.402 318.829 184.509C328.935 160.235 335.002 154.315 335.002 154.315Z" fill="#CC1319"/>
<path opacity="0.1" d="M335.002 154.315C334.546 156.227 320.227 204.98 319.233 217.133C318.125 230.614 308.33 308.955 308.33 308.955H295.905C295.905 308.955 313.89 196.402 318.829 184.509C328.935 160.235 335.002 154.315 335.002 154.315Z" fill="black"/>
<path d="M380.849 170.281C401.308 193.151 451.049 279.918 435.269 295.744C419.49 311.57 331.885 290.267 307.284 278.027C299.964 274.398 327.775 226.78 336.379 225.667C343.544 224.749 380.155 242.217 381.222 240.024C382.413 237.539 376.594 219.207 367.762 186.01C357.625 147.747 371.8 160.17 380.849 170.281Z" fill="#EB9481"/>
<path d="M300.016 210.305C282.228 207.713 277.237 209.906 263.373 199.406C254.252 192.513 246.113 195.635 251.321 206.578C259.832 224.489 282.114 232.851 290.666 233.434L300.016 210.305Z" fill="#EB9481"/>
<path d="M347.271 228.151C347.271 228.151 327.278 216.571 308.579 211.861C295.657 208.62 266.77 204.785 239.124 234.547C232.57 241.601 228.025 256.508 242.738 249.044C253.195 243.74 258.269 237.085 264.906 235.152C264.906 235.152 261.282 254.823 268.312 261.402C274.457 267.151 280.986 272.436 287.85 277.217C288.979 276.109 290.037 274.925 291.018 273.674C291.018 273.674 298.142 279.172 311.54 277.833L347.271 228.151Z" fill="#EB9481"/>
<path d="M295.76 210.867C289.548 214.227 276.595 221.583 267.981 231.457C258.403 242.433 242.8 266.242 250.638 273.587C256.374 278.935 263.063 270.347 263.063 270.347C263.063 270.347 258.6 281.614 264.802 285.254C270.445 288.582 275.27 281.646 275.27 281.646C275.27 281.646 273.686 288.96 279.722 291.066C286.97 293.594 289.103 277.844 298.577 273.782C300.741 272.81 295.76 210.867 295.76 210.867Z" fill="#EB9481"/>
<path d="M280.768 240.034C275.456 244.193 265.703 256.865 263.011 269.99C262.949 270.293 263.125 270.498 263.239 270.239C267.916 259.496 273.826 249.387 280.84 240.132C280.923 240.034 280.84 240.034 280.768 240.034Z" fill="#263238"/>
<path d="M291.101 250.437C286.866 254.521 277.372 268.046 275.083 281.452C275.032 281.754 275.228 281.949 275.322 281.679C279.468 270.701 284.792 260.25 291.194 250.524C291.256 250.459 291.194 250.383 291.101 250.437Z" fill="#263238"/>
<path d="M264.906 235.022C259.108 236.804 255.339 239.775 250.41 243.318C248.011 245.107 245.519 246.755 242.945 248.255C240.584 249.584 237.095 251.593 234.59 249.508C233.181 248.352 233.202 246.268 233.554 244.572C234.262 242.116 235.338 239.794 236.743 237.69C236.743 237.604 236.671 237.507 236.609 237.582C235.252 239.499 234.087 241.555 233.13 243.718C232.503 245.201 232.319 246.846 232.602 248.439C233.461 251.766 237.23 252.209 239.849 251.291C241.437 250.682 242.963 249.911 244.405 248.99C245.813 248.147 247.18 247.24 248.547 246.289C251.301 244.345 253.941 242.238 256.675 240.261C259.33 238.401 262.097 236.72 264.958 235.227C264.979 235.216 264.997 235.198 265.007 235.175C265.017 235.152 265.019 235.127 265.013 235.102C265.007 235.078 264.993 235.057 264.973 235.042C264.954 235.027 264.93 235.02 264.906 235.022Z" fill="#263238"/>
<path d="M252.76 256.303C254.262 252.857 262.39 238.49 265.02 235.162C265.029 235.146 265.033 235.126 265.031 235.107C265.029 235.088 265.021 235.07 265.007 235.056C264.994 235.042 264.977 235.034 264.959 235.031C264.94 235.029 264.922 235.033 264.906 235.044C260.381 239.516 253.123 251.388 251.446 255.191C249.768 258.993 247.842 263.757 247.842 267.938C247.842 274.257 251.86 275.5 253.34 275.77C255.112 276.104 256.941 275.792 258.517 274.884C260.362 273.708 261.955 272.149 263.197 270.303C263.259 270.217 263.145 270.098 263.073 270.185C261.002 272.68 257.482 275.132 254.2 274.679C253.472 274.607 252.765 274.383 252.121 274.022C251.477 273.66 250.91 273.167 250.452 272.572C249.554 271.052 249.209 269.247 249.478 267.484C249.963 263.591 251.072 259.811 252.76 256.303Z" fill="#263238"/>
<path d="M347.271 228.151L319.233 289.727C319.233 289.727 428.902 315.415 438.365 295.495C447.829 275.575 405.233 197.623 386.047 174.916C363.796 148.601 360.959 157.556 365.857 180.879C371.034 205.293 380.901 240.596 380.901 240.596L347.271 228.151Z" fill="#CC1319"/>
<path opacity="0.1" d="M347.271 228.151L319.233 289.727C319.233 289.727 428.902 315.415 438.365 295.495C447.829 275.575 405.233 197.623 386.047 174.916C363.796 148.601 360.959 157.556 365.857 180.879C371.034 205.293 380.901 240.596 380.901 240.596L347.271 228.151Z" fill="#CC1319"/>
<path d="M414.23 256.984C404.115 249.654 393.007 243.941 381.274 240.034C377.95 238.954 374.596 237.928 371.241 236.923C371.137 236.923 371.096 237.064 371.241 237.096C377.092 239.072 382.827 241.402 388.418 244.075C394.002 246.667 399.524 249.364 404.984 252.166C408.091 253.754 411.114 255.493 414.158 257.189C414.178 257.184 414.197 257.174 414.213 257.16C414.229 257.146 414.241 257.128 414.248 257.107C414.255 257.087 414.258 257.065 414.254 257.043C414.251 257.021 414.243 257.001 414.23 256.984Z" fill="#263238"/>
<path d="M347.561 227.989C348.11 228.141 378.106 238.479 379.089 238.954C378.965 238.479 373.581 221.843 372.773 219.401C372.701 219.164 372.628 218.915 372.546 218.677C372.007 217.597 371.448 216.517 370.941 215.437C370.299 214.022 369.657 212.585 369.025 211.116H369.087L371.158 215.296C371.479 215.934 371.779 216.593 372.08 217.252C371.552 215.534 371.044 213.805 370.537 212.066C369.729 209.312 369.005 206.524 368.29 203.737C368.29 203.64 368.394 203.619 368.425 203.737C370.019 208.588 371.759 213.384 373.364 218.235C374.968 223.085 381.139 240.92 381.088 240.92C381.036 240.92 348.058 228.756 347.417 228.486C347.385 228.476 347.356 228.46 347.331 228.438C347.306 228.417 347.285 228.39 347.269 228.36C347.254 228.33 347.244 228.297 347.241 228.263C347.238 228.229 347.241 228.195 347.251 228.162C347.26 228.13 347.276 228.099 347.297 228.073C347.317 228.047 347.343 228.025 347.372 228.009C347.401 227.993 347.432 227.983 347.465 227.979C347.497 227.976 347.53 227.979 347.561 227.989Z" fill="#263238"/>
<path d="M345.542 268.121C348.648 261.262 351.661 254.359 354.985 247.596C356.88 243.761 358.754 239.916 360.68 236.102C360.752 235.962 361 236.102 360.938 236.221C358.101 243.243 355.244 250.265 352.096 257.167C348.948 264.07 345.884 270.887 342.684 277.693C340.862 281.56 338.926 285.366 336.876 289.111C336.876 289.187 336.71 289.111 336.741 289.111C339.35 281.96 342.425 275.057 345.542 268.121Z" fill="#263238"/>
<path d="M317.814 290.677C318.912 288.776 320.299 286.054 321.469 284.196C321.78 283.71 322.142 283.807 321.894 284.315C321.055 286.043 320.361 287.977 319.543 289.716C321.076 290.04 322.65 290.321 324.161 290.656C325.942 291.045 327.713 291.444 329.494 291.822C332.986 292.543 336.479 293.263 339.972 293.983C347.054 295.358 354.164 296.568 361.301 297.613C375.599 299.797 389.997 301.207 404.435 301.836C408.474 301.988 412.522 302.063 416.56 302.009C420.543 302.02 424.524 301.818 428.488 301.404C428.602 301.404 428.622 301.588 428.488 301.61C425.077 302.362 421.615 302.831 418.134 303.014C414.479 303.198 410.814 303.284 407.148 303.241C399.9 303.154 392.58 302.657 385.322 301.966C370.93 300.583 356.58 298.552 342.353 295.927C338.363 295.207 334.384 294.426 330.415 293.583C328.406 293.162 326.408 292.741 324.41 292.276C322.411 291.812 317.628 291.001 317.814 290.677Z" fill="#263238"/>
<path d="M334.981 176.709C342.229 178.794 355.202 167.613 360.504 158.345C360.866 157.707 360.152 150.837 359.665 142.443C359.385 137.355 359.199 131.64 359.385 126.477C359.385 125.396 327.878 133.196 327.878 133.196C327.878 133.196 330.57 144.193 330.198 153.246C330.165 153.974 330.068 154.697 329.908 155.406C329.879 155.52 329.858 155.635 329.846 155.752C329.069 159.76 327.972 174.689 334.981 176.709Z" fill="#EB9481"/>
<path d="M357.46 126.606C355.7 135.335 349.715 156.346 333.045 156.098C331.976 156.087 330.91 155.985 329.856 155.795C329.843 155.677 329.843 155.557 329.856 155.439C330.01 154.728 330.11 154.005 330.157 153.278C330.519 144.215 327.837 133.207 327.837 133.207C327.837 133.207 350.637 127.589 357.46 126.606Z" fill="#263238"/>
<path d="M324.12 110.888C324.472 118.861 319.315 125.58 312.606 125.904C305.897 126.228 300.181 120.006 299.84 112.033C299.498 104.061 304.654 97.3418 311.353 97.0285C318.052 96.7152 323.778 102.916 324.12 110.888Z" fill="#455A64"/>
<path d="M301.071 112.474C300.687 103.605 306.423 96.1303 313.883 95.7782C321.344 95.4261 327.703 102.33 328.088 111.199C328.472 120.067 322.736 127.542 315.276 127.894C307.815 128.246 301.456 121.342 301.071 112.474Z" fill="#C7C7C7"/>
<path d="M355.275 85.1132C360.701 95.7862 361.042 129.717 354.664 138.597C345.418 151.452 327.247 156.173 316.044 143.891C305.141 131.943 305.452 87.7166 312.855 79.3229C323.737 66.9323 347.261 69.3521 355.275 85.1132Z" fill="#EB9481"/>
<path d="M328.231 111.342C328.231 111.256 328.407 111.461 328.396 111.558C328.282 113.838 328.51 116.473 330.467 117.273C330.529 117.273 330.519 117.413 330.467 117.402C328.044 116.992 327.775 113.492 328.231 111.342Z" fill="#263238"/>
<path d="M330.239 109.009C333.77 108.814 333.884 116.192 330.622 116.365C327.361 116.538 327.278 109.171 330.239 109.009Z" fill="#263238"/>
<path d="M315.971 111.623C315.971 111.537 315.806 111.742 315.806 111.828C315.909 114.118 315.661 116.754 313.735 117.543C313.673 117.543 313.735 117.683 313.735 117.672C316.127 117.273 316.427 113.773 315.971 111.623Z" fill="#263238"/>
<path d="M313.973 109.322C310.453 109.095 310.287 116.473 313.559 116.679C316.831 116.884 316.934 109.452 313.973 109.322Z" fill="#263238"/>
<path d="M333.407 103.11C332.372 103.056 331.513 102.83 330.529 102.678C329.491 102.658 328.49 102.278 327.682 101.598C327.465 101.338 327.337 101.01 327.319 100.666C327.3 100.322 327.391 99.9808 327.578 99.6968C328.031 99.1997 328.603 98.8376 329.234 98.6477C329.866 98.4578 330.534 98.447 331.171 98.6165C332.52 98.7284 333.78 99.3645 334.702 100.399C334.895 100.647 335.015 100.948 335.049 101.265C335.083 101.583 335.028 101.903 334.891 102.189C334.755 102.475 334.542 102.714 334.279 102.878C334.016 103.041 333.713 103.122 333.407 103.11Z" fill="#263238"/>
<path d="M310.649 103.921C311.595 103.704 312.528 103.433 313.445 103.11C314.463 102.982 315.413 102.508 316.147 101.76C316.333 101.475 316.422 101.133 316.402 100.789C316.381 100.445 316.252 100.118 316.033 99.8588C315.527 99.4161 314.917 99.1218 314.265 99.006C313.614 98.8902 312.945 98.9571 312.327 99.1999C311.003 99.4901 309.829 100.283 309.034 101.425C308.879 101.697 308.801 102.008 308.81 102.324C308.818 102.64 308.913 102.946 309.082 103.208C309.252 103.47 309.489 103.676 309.767 103.802C310.044 103.928 310.35 103.969 310.649 103.921Z" fill="#263238"/>
<path d="M332.227 132.526C331.709 133.066 331.192 133.812 330.405 133.898C329.59 133.89 328.787 133.707 328.044 133.358C328.029 133.355 328.014 133.356 327.999 133.361C327.985 133.366 327.972 133.375 327.963 133.388C327.953 133.4 327.947 133.415 327.945 133.431C327.943 133.446 327.945 133.462 327.951 133.477C328.268 133.923 328.696 134.27 329.189 134.481C329.682 134.693 330.22 134.76 330.746 134.676C331.191 134.546 331.59 134.282 331.892 133.917C332.194 133.552 332.386 133.102 332.444 132.623C332.475 132.494 332.31 132.44 332.227 132.526Z" fill="#263238"/>
<path d="M329.814 125.72C329.274 126.634 328.558 127.42 327.711 128.03C326.865 128.639 325.906 129.06 324.896 129.264C324.016 129.46 323.112 129.522 322.215 129.447C322.041 129.441 321.868 129.423 321.697 129.393L321.221 129.318C321.103 129.298 320.995 129.238 320.913 129.149C320.831 129.059 320.779 128.944 320.765 128.821C320.76 128.742 320.76 128.662 320.765 128.583V128.378C320.692 126.617 320.765 123.938 320.765 123.938C320.154 124.273 317.027 125.807 317.069 124.889C317.379 117.262 317.731 108.793 319.585 101.285C319.595 101.237 319.621 101.194 319.657 101.164C319.694 101.133 319.74 101.117 319.787 101.117C319.833 101.117 319.879 101.133 319.916 101.164C319.952 101.194 319.978 101.237 319.988 101.285C319.988 108.62 318.705 115.901 318.57 123.268C319.679 122.709 320.856 122.312 322.07 122.091C322.308 122.166 321.749 127.265 321.842 128.054C321.839 128.083 321.839 128.111 321.842 128.14C324.689 128.464 326.812 127.535 329.524 125.504C329.773 125.386 329.949 125.526 329.814 125.72Z" fill="#263238"/>
<path d="M323.199 128.529C324.14 129.773 325.374 130.74 326.781 131.338C327.557 131.638 328.404 131.679 329.204 131.457C330.943 130.938 330.964 129.296 330.622 127.838C330.432 127.087 330.157 126.362 329.804 125.677C327.95 127.338 325.635 128.337 323.199 128.529Z" fill="#263238"/>
<path d="M326.781 131.338C327.557 131.638 328.404 131.679 329.204 131.457C330.943 130.938 330.964 129.296 330.622 127.838C328.748 128.075 326.916 129.437 326.781 131.338Z" fill="#FF98B9"/>
<path opacity="0.2" d="M359.344 109.074C357.211 108.717 352.096 101.188 349.932 98.1952C347.769 95.2029 346.516 79.1609 346.319 75.5096C350.116 77.7499 353.225 81.069 355.285 85.0808C357.708 89.8772 359.106 99.3079 359.344 109.074Z" fill="#263238"/>
<path d="M319.865 88.7969C321.129 90.2438 322.726 91.3297 324.506 91.9517C326.285 92.5737 328.187 92.7111 330.032 92.351C331.915 91.9895 333.677 91.1318 335.152 89.8593C336.627 88.5868 337.766 86.9418 338.46 85.0808C338.46 84.9619 338.667 85.0268 338.626 85.1348C338.066 87.162 336.986 88.9912 335.503 90.4248C334.019 91.8584 332.188 92.8419 330.208 93.2692C328.241 93.5792 326.23 93.3431 324.378 92.5845C322.525 91.826 320.897 90.5718 319.657 88.9481C319.65 88.9203 319.652 88.8909 319.661 88.8639C319.671 88.8369 319.688 88.8135 319.71 88.797C319.733 88.7805 319.76 88.7717 319.787 88.7717C319.815 88.7716 319.842 88.7804 319.865 88.7969Z" fill="#263238"/>
<path d="M330.384 60.0401C336.772 59.9753 342.736 63.4646 345.211 67.9153C346.585 70.4516 347.096 73.3987 346.661 76.2766C346.661 76.3954 346.422 76.3738 346.433 76.2766C346.486 73.7403 345.885 71.2356 344.692 69.0252C343.499 66.8147 341.758 64.9799 339.651 63.7131C337.344 62.2382 334.741 61.3418 332.046 61.0944C329.351 60.8469 326.638 61.2552 324.12 62.2871C321.666 63.2346 319.617 65.066 318.342 67.4508C318.218 67.6993 317.742 67.5588 317.835 67.3104C319.45 63.0757 324.617 60.0942 330.384 60.0401Z" fill="#263238"/>
<path d="M293.783 75.6932C294.73 72.3737 296.768 69.5087 299.54 67.602C303.381 64.9446 307.823 65.1714 312.213 65.4955C312.238 65.4955 312.261 65.5057 312.279 65.524C312.296 65.5422 312.306 65.5669 312.306 65.5927C312.306 65.6185 312.296 65.6432 312.279 65.6614C312.261 65.6797 312.238 65.6899 312.213 65.6899C308.465 65.4307 304.644 65.3875 301.269 67.3427C298.459 68.9296 296.264 71.4836 295.056 74.5697C293.907 77.7352 293.893 81.2271 295.015 84.403C296.137 87.5788 298.322 90.2248 301.165 91.854C302.824 92.748 304.64 93.279 306.502 93.4146C308.365 93.5502 310.234 93.2875 311.996 92.6426C312.14 92.5886 312.244 92.7939 312.109 92.8587C309.73 93.8371 307.136 94.1054 304.619 93.6335C302.102 93.1615 299.76 91.968 297.856 90.1865C295.952 88.405 294.56 86.1057 293.837 83.5461C293.114 80.9865 293.088 78.2674 293.762 75.6932H293.783Z" fill="#263238"/>
<path d="M357.584 91.6488C357.584 91.6488 363.237 79.5174 357.936 72.8197C354.933 69.028 345.428 69.8922 345.428 69.8922C345.428 69.8922 342.167 64.3072 334.215 62.7192C326.263 61.1312 316.882 66.3273 316.882 66.3273C316.882 66.3273 309.158 62.1035 302.221 66.5974C292.54 72.8629 294.321 88.516 304.447 93.1828C311.55 96.4236 320.807 89.6611 320.807 89.6611C321.728 89.7583 331.274 95.2677 338.025 86.3123C338.025 86.3123 343.948 91.4111 348.969 87.4898C349.824 89.0206 351.108 90.2405 352.649 90.9844C354.19 91.7283 355.913 91.9602 357.584 91.6488Z" fill="#263238"/>
<path d="M353.515 113.179C353.515 113.179 358.888 101.296 363.952 103.067C369.015 104.839 366.209 121.28 361.135 124.37C360.509 124.813 359.804 125.12 359.061 125.271C358.319 125.423 357.555 125.416 356.815 125.251C356.075 125.087 355.375 124.768 354.756 124.314C354.137 123.86 353.613 123.28 353.215 122.609L353.515 113.179Z" fill="#EB9481"/>
<path d="M363.041 107.745C363.124 107.745 363.165 107.853 363.041 107.896C359.5 110.186 358.102 114.237 357.336 118.31C358.216 116.635 359.634 115.555 361.746 116.614C361.768 116.629 361.785 116.651 361.794 116.676C361.804 116.702 361.805 116.73 361.798 116.756C361.791 116.782 361.776 116.806 361.756 116.823C361.736 116.84 361.71 116.85 361.684 116.851C360.977 116.751 360.258 116.881 359.624 117.224C358.99 117.566 358.473 118.103 358.143 118.763C357.607 119.874 357.183 121.04 356.88 122.242C356.756 122.631 356.114 122.544 356.176 122.112C356.171 122.08 356.171 122.047 356.176 122.015C355.306 116.97 357.905 109.203 363.041 107.745Z" fill="#263238"/>
<path d="M341.805 137.106L352.003 132.515L360.204 121.864L358.63 120.535L350.74 130.787L340.997 135.173L341.805 137.106Z" fill="#C7C7C7"/>
<path d="M342.892 135.41C341.856 132.31 333.573 133.455 335.074 138.144C336.576 142.832 343.896 138.489 342.892 135.41Z" fill="#37474F"/>
<path d="M364.107 102.743C364.107 102.743 365.215 85.3184 360.328 75.7364C354.882 65.031 332.31 54.8441 316.841 66.3489C316.841 66.3489 341.97 61.6605 353.681 76.5034C358.609 82.7474 358.485 103.229 358.485 103.229L364.107 102.743Z" fill="#C7C7C7"/>
<path d="M361.828 127.769C354.36 127.692 348.375 120.432 348.46 111.555C348.544 102.678 354.667 95.5445 362.135 95.622C369.602 95.6995 375.588 102.959 375.503 111.836C375.418 120.713 369.296 127.847 361.828 127.769Z" fill="#C7C7C7"/>
<path d="M352.407 111.094C352.335 119.077 357.708 125.602 364.418 125.666C371.127 125.731 376.635 119.325 376.708 111.342C376.78 103.359 371.407 96.8341 364.697 96.7693C357.988 96.7045 352.48 103.11 352.407 111.094Z" fill="#455A64"/>
<path d="M329.97 155.212L337.27 174.44L360.235 150.264L366.675 158.085C366.675 158.085 344.155 196.554 344.02 194.814L336.514 178.232L325.518 189.694L326.553 160.808L329.97 155.212Z" fill="#EBEBEB"/>
<path d="M325.248 175.38C325.569 170.616 325.756 165.809 326.284 161.067C326.284 160.905 326.553 160.829 326.594 161.067C327.485 165.68 326.17 183.882 326.17 188.257H326.222C326.677 187.76 336.41 178.178 336.503 178.329C338.129 180.965 343.647 193.032 344.02 194.134C347.582 188.019 362.657 163.94 366.902 158.161C366.923 158.124 366.957 158.096 366.997 158.085C367.037 158.074 367.079 158.08 367.115 158.101C367.15 158.123 367.176 158.158 367.187 158.2C367.198 158.241 367.192 158.286 367.172 158.323C364.065 164.805 344.496 196.575 344.227 196.489C341.322 190.792 338.699 184.944 336.369 178.967C334.722 181.052 324.907 191.876 324.876 191.163C324.733 185.899 324.857 180.631 325.248 175.38Z" fill="#263238"/>
<path d="M210.496 310.252H217.599V315.091H210.496V310.252Z" fill="#455A64"/>
<path d="M201.291 309.928H208.394V314.767H201.291V309.928Z" fill="#455A64"/>
<path d="M192.076 309.604H199.179V314.443H192.076V309.604Z" fill="#455A64"/>
<path d="M182.861 309.29H189.964V314.13H182.861V309.29Z" fill="#455A64"/>
<path d="M173.646 308.966H180.749V313.806H173.646V308.966Z" fill="#455A64"/>
<path d="M164.431 308.653H171.534V313.493H164.431V308.653Z" fill="#455A64"/>
<path d="M155.216 308.329H162.319V313.169H155.216V308.329Z" fill="#455A64"/>
<path d="M146.001 308.005H153.104V312.844H146.001V308.005Z" fill="#455A64"/>
<path d="M136.796 307.692H143.899V312.531H136.796V307.692Z" fill="#455A64"/>
<path d="M135.046 317.868H219.348V311.98L135.046 309.528V317.868Z" fill="#37474F"/>
<path d="M52.774 294.653H191.931L169.805 186.561H30.6476L52.774 294.653Z" fill="#455A64"/>
<path d="M47.628 294.653H186.785L164.659 186.561H25.5016L47.628 294.653Z" fill="#37474F"/>
<path d="M97.3224 240.414C93.5469 236.774 92.9023 231.095 95.8828 227.73C98.8633 224.365 104.34 224.588 108.116 228.228C111.891 231.868 112.536 237.547 109.555 240.912C106.575 244.277 101.098 244.054 97.3224 240.414Z" fill="#263238"/>
<path d="M86.9832 322.88H155.423V317.328L86.9832 315.027V322.88Z" fill="#455A64"/>
<path d="M68.3773 322.869H105.124L127.26 262.299H90.5141L68.3773 322.869Z" fill="#455A64"/>
<path d="M62.3306 322.869H99.0767L121.203 262.299H84.457L62.3306 322.869Z" fill="#263238"/>
<path d="M221.947 324.349H292.509C298.525 324.349 289.817 306.46 267.836 299.6C245.854 292.741 215.01 317.641 221.947 324.349Z" fill="#37474F"/>
<path d="M249.634 324.349C249.577 322.311 249.253 320.29 248.671 318.343C248.102 316.38 247.306 314.498 246.3 312.736C245.287 310.967 244.024 309.368 242.552 307.994C241.096 306.615 239.417 305.518 237.592 304.753C238.348 305.401 239.207 305.833 239.901 306.557L240.936 307.519L241.972 308.599C243.28 310.023 244.427 311.6 245.389 313.298C246.366 314.997 247.204 316.778 247.894 318.624C248.597 320.489 249.178 322.402 249.634 324.349Z" fill="#263238"/>
<path d="M241.278 307.324C237.087 308.771 233.121 310.849 229.505 313.493C227.678 314.81 226.025 316.372 224.587 318.138C223.881 319.041 223.274 320.023 222.775 321.065C222.283 322.107 222.001 323.243 221.947 324.403C222.194 323.303 222.625 322.257 223.221 321.314C223.784 320.367 224.443 319.487 225.188 318.689C226.696 317.094 228.343 315.647 230.106 314.368C231.856 313.05 233.709 311.872 235.562 310.705C236.494 310.122 237.447 309.56 238.399 309.02C239.352 308.48 240.315 307.875 241.278 307.324Z" fill="#263238"/>
<path d="M217.93 37.2379C218.539 43.263 220.74 48.9932 224.288 53.7892C227.836 58.5853 232.591 62.2586 238.023 64.3995C243.456 66.5404 249.351 67.0647 255.052 65.9138C260.753 64.763 266.036 61.9823 270.311 57.8819L286.018 60.3233L278.169 46.1826C280.13 41.2007 280.871 35.7875 280.323 30.4323C279.921 26.1383 278.708 21.9698 276.756 18.1668C274.803 14.3637 272.149 11.0013 268.945 8.27303C265.742 5.54481 262.053 3.50473 258.09 2.27026C254.128 1.03579 249.971 0.631312 245.858 1.08014C241.745 1.52898 237.758 2.82224 234.127 4.88546C230.495 6.94867 227.29 9.74108 224.697 13.1019C222.105 16.4627 220.174 20.3255 219.018 24.4678C217.862 28.6101 217.503 32.9501 217.961 37.2379H217.93Z" fill="white"/>
<path d="M217.93 37.2378C218.532 43.2681 220.722 49.007 224.256 53.8199C225.134 55.017 226.082 56.157 227.093 57.2336C228.142 58.2726 229.248 59.2466 230.406 60.1503C232.713 61.9823 235.258 63.4627 237.965 64.547C240.67 65.6526 243.51 66.358 246.403 66.6427C247.852 66.7849 249.309 66.8138 250.762 66.7291C252.218 66.6938 253.668 66.5384 255.1 66.2646C260.889 65.1565 266.266 62.3884 270.631 58.2706L270.259 58.3895L285.924 60.9065L287.053 61.1225L286.483 60.0423L278.676 45.8584V46.4201C280.508 41.7736 281.3 36.7523 280.992 31.7384C280.684 26.7244 279.283 21.8499 276.897 17.4857C274.511 13.1216 271.203 9.38269 267.223 6.55361C263.243 3.72454 258.698 1.8798 253.932 1.15977C249.166 0.439752 244.306 0.863414 239.72 2.39851C235.135 3.93362 230.946 6.53971 227.471 10.0185C223.997 13.4973 221.329 17.7571 219.67 22.4739C218.011 27.1906 217.405 32.24 217.899 37.2378H217.93ZM217.93 37.2378C217.438 32.3146 218.034 27.3394 219.672 22.6938C221.309 18.0482 223.945 13.8556 227.377 10.4379C230.809 7.0201 234.945 4.4679 239.469 2.97707C243.993 1.48625 248.784 1.0964 253.475 1.83746C258.126 2.56133 262.557 4.38682 266.428 7.17399C270.256 9.9844 273.456 13.6253 275.808 17.847C278.123 22.0903 279.49 26.8245 279.805 31.6961C280.094 36.5772 279.334 41.464 277.579 45.9988L277.465 46.2905L277.62 46.5497L285.51 60.6688L286.069 59.8046L270.373 57.5145H270.155L270 57.6657C265.81 61.7576 260.612 64.5518 254.987 65.7353C253.584 66.0294 252.161 66.21 250.731 66.2754C249.304 66.378 247.872 66.378 246.445 66.2754C243.58 66.0473 240.76 65.4 238.068 64.3526C235.363 63.3322 232.816 61.9017 230.51 60.1071C229.354 59.2112 228.248 58.2482 227.197 57.2228C226.182 56.1575 225.231 55.0283 224.349 53.8415C220.776 49.0344 218.554 43.286 217.93 37.2378Z" fill="#263238"/>
<path d="M231.628 34.8289C231.626 35.6134 231.847 36.381 232.264 37.0344C232.68 37.6878 233.273 38.1976 233.967 38.4993C234.661 38.8011 235.425 38.8811 236.163 38.7294C236.901 38.5776 237.579 38.2009 238.111 37.6469C238.644 37.0928 239.007 36.3864 239.154 35.6171C239.302 34.8477 239.227 34.05 238.94 33.325C238.652 32.5999 238.165 31.9801 237.54 31.544C236.915 31.1079 236.18 30.8751 235.428 30.8751C234.93 30.8737 234.436 30.9749 233.975 31.1729C233.514 31.371 233.095 31.662 232.742 32.0293C232.389 32.3966 232.109 32.8329 231.918 33.3133C231.727 33.7937 231.628 34.3087 231.628 34.8289Z" fill="#263238"/>
<path d="M245.233 34.8289C245.231 35.6139 245.453 36.3819 245.869 37.0355C246.286 37.6892 246.879 38.199 247.574 38.5004C248.269 38.8018 249.034 38.8812 249.772 38.7286C250.51 38.576 251.188 38.1982 251.72 37.643C252.252 37.0879 252.614 36.3805 252.76 35.6105C252.907 34.8404 252.831 34.0424 252.542 33.3175C252.253 32.5926 251.764 31.9735 251.138 31.5387C250.511 31.1039 249.775 30.8729 249.023 30.8751C248.018 30.8751 247.054 31.2916 246.343 32.0331C245.632 32.7746 245.233 33.7803 245.233 34.8289Z" fill="#263238"/>
<path d="M258.828 34.8288C258.826 35.6134 259.047 36.381 259.463 37.0344C259.88 37.6878 260.472 38.1976 261.167 38.4993C261.861 38.8011 262.625 38.8811 263.363 38.7294C264.101 38.5776 264.779 38.2009 265.311 37.6468C265.844 37.0928 266.206 36.3864 266.354 35.6171C266.501 34.8477 266.427 34.05 266.139 33.325C265.852 32.5999 265.365 31.9801 264.74 31.544C264.115 31.1079 263.38 30.8751 262.628 30.8751C261.622 30.8751 260.657 31.2913 259.945 32.0324C259.232 32.7736 258.831 33.7792 258.828 34.8288Z" fill="#263238"/>
</svg>
