<svg width="154" height="154" viewBox="0 0 154 154" fill="none" xmlns="http://www.w3.org/2000/svg">
<circle cx="77" cy="77" r="77" fill="white"/>
<path d="M108.5 45.5H45.5V108.5H108.5V45.5Z" fill="#ECEFF1"/>
<path d="M77 83.6255L108.5 108.5V59.3915L77 83.6255Z" fill="#CFD8DC"/>
<path d="M111.125 45.5H108.5L77 70.3745L45.5 45.5H42.875C38.528 45.5 35 49.028 35 53.375V100.625C35 104.972 38.528 108.5 42.875 108.5H45.5V59.3915L77 83.6202L108.5 59.3862V108.5H111.125C115.472 108.5 119 104.972 119 100.625V53.375C119 49.028 115.472 45.5 111.125 45.5Z" fill="#C21F22"/>
</svg>
