<svg width="154" height="154" viewBox="0 0 154 154" fill="none" xmlns="http://www.w3.org/2000/svg">
<circle cx="77" cy="77" r="77" fill="white"/>
<g clip-path="url(#clip0)">
<path d="M116.106 30.0519H82.2328C78.4254 30.0519 75.3389 33.1384 75.3389 36.9458V51.2906C75.3389 55.098 78.4254 58.1845 82.2328 58.1845H85.5403L89.6479 65.299C90.239 66.3229 91.7168 66.3229 92.3079 65.299L96.4155 58.1845H116.106C119.913 58.1845 123 55.098 123 51.2906V36.9458C123 33.1384 119.913 30.0519 116.106 30.0519Z" fill="#C3E9FB"/>
<path d="M116.106 30.0519H99.0771V58.1847H116.106C119.913 58.1847 123 55.0981 123 51.2907V36.9458C123 33.1384 119.913 30.0519 116.106 30.0519Z" fill="#99DDFF"/>
<path d="M36.0779 50.2112L44.0805 42.182C45.3586 40.904 46.7855 40.9729 47.9125 42.0996L64.6735 58.8607C65.7551 59.9422 65.7551 61.696 64.6735 62.7775L55.2696 72.1815C53.9219 73.5291 53.9219 75.714 55.2696 77.0616L77.1952 98.9873C78.3421 100.134 80.2014 100.134 81.3483 98.9873L91.37 88.9655C92.4516 87.8839 94.2054 87.8839 95.2869 88.9655L112.092 105.77C113.173 106.852 113.173 108.605 112.092 109.687L106.427 115.352C103.65 118.129 100.211 120.175 96.416 121.183C96.2409 121.23 96.0668 121.274 95.8936 121.317C88.3368 123.163 80.3665 120.827 74.8658 115.327L37.3027 77.7636C34.2461 74.7071 32.1216 70.818 31.3393 66.5666C29.4463 56.278 36.0779 50.2112 36.3656 49.8959" fill="#FF405C"/>
<path d="M88.4657 46.7479C90.0103 46.7479 91.2624 45.4958 91.2624 43.9512C91.2624 42.4066 90.0103 41.1545 88.4657 41.1545C86.9211 41.1545 85.6689 42.4066 85.6689 43.9512C85.6689 45.4958 86.9211 46.7479 88.4657 46.7479Z" fill="#9D1212"/>
<path d="M99.077 46.7479C100.622 46.7479 101.874 45.4958 101.874 43.9512C101.874 42.4066 100.622 41.1545 99.077 41.1545C97.5324 41.1545 96.2803 42.4066 96.2803 43.9512C96.2803 45.4958 97.5324 46.7479 99.077 46.7479Z" fill="#9D1212"/>
<path d="M109.687 46.7479C111.232 46.7479 112.484 45.4958 112.484 43.9512C112.484 42.4066 111.232 41.1545 109.687 41.1545C108.143 41.1545 106.891 42.4066 106.891 43.9512C106.891 45.4958 108.143 46.7479 109.687 46.7479Z" fill="#9D1212"/>
<path d="M101.874 43.9512C101.874 42.4067 100.622 41.1545 99.0771 41.1545V46.7479C100.622 46.7479 101.874 45.4957 101.874 43.9512Z" fill="#9D1212"/>
<path d="M112.091 105.77L95.2867 88.9656C94.2051 87.8841 92.4514 87.8841 91.3698 88.9656L81.348 98.9874C80.2012 100.134 78.3419 100.134 77.195 98.9874L66.1138 87.9062L56.7793 97.2407L74.9022 115.363C80.3358 120.797 88.1912 123.13 95.6709 121.37C95.8258 121.334 95.9813 121.295 96.1376 121.256C100.049 120.261 103.599 118.179 106.452 115.326L112.091 109.687C113.173 108.605 113.173 106.852 112.091 105.77Z" fill="#BF1E21"/>
</g>
<defs>
<clipPath id="clip0">
<rect width="92" height="92" fill="white" transform="translate(31 30)"/>
</clipPath>
</defs>
</svg>
