<svg width="154" height="154" viewBox="0 0 154 154" fill="none" xmlns="http://www.w3.org/2000/svg">
<circle cx="77" cy="77" r="77" fill="white"/>
<path d="M33 120L39.0689 98C35.1242 91.1724 33 83.5862 33 75.6965C33 51.7242 52.7242 32 76.8482 32C100.972 32 121 51.7242 121 75.6965C121 99.6687 100.972 120 76.8482 120C69.262 120 61.9793 117.572 55.4551 113.931L33 120Z" fill="#EDEDED"/>
<path d="M56.6686 106.041L58.0342 106.8C63.6479 110.29 70.1722 112.414 76.9997 112.414C96.8755 112.414 113.413 95.8758 113.413 75.6965C113.413 55.5171 96.8755 39.5862 76.8479 39.5862C56.8204 39.5862 40.5859 55.6689 40.5859 75.6965C40.5859 82.6758 42.5584 89.5033 46.1997 95.2689L47.1101 96.6344L43.6206 109.379L56.6686 106.041Z" fill="#55CD6C"/>
<path d="M65.1656 55.3655L62.2829 55.2138C61.3725 55.2138 60.4622 55.5173 59.8554 56.1242C58.4898 57.338 56.214 59.6138 55.6071 62.6484C54.5451 67.2002 56.214 72.6622 60.1589 78.1242C64.1038 83.5862 71.69 92.3862 85.0416 96.1793C89.2898 97.3931 92.6278 96.6344 95.3589 94.9655C97.4831 93.6 98.8485 91.4759 99.3038 89.2L99.7589 87.0758C99.9107 86.4689 99.6071 85.7102 99.0002 85.4069L89.4416 81.0069C88.8347 80.7033 88.076 80.8551 87.6209 81.462L83.8278 86.3171C83.5243 86.6207 83.0691 86.7722 82.614 86.6207C80.0347 85.7102 71.3865 82.0689 66.6829 72.9655C66.5312 72.5104 66.5312 72.0551 66.8347 71.7518L70.476 67.6553C70.7796 67.2002 70.9312 66.5933 70.7796 66.138L66.3796 56.276C66.2276 55.8207 65.7725 55.3655 65.1656 55.3655Z" fill="#FEFEFE"/>
</svg>
